<?xml version="1.0" encoding="UTF-8"?>
<svg id="Layer_1" data-name="Layer 1" xmlns="http://www.w3.org/2000/svg" viewBox="0 0 199.43 54.59">
  <defs>
    <style>
      .cls-1 {
        fill: #00424a;
      }
    </style>
  </defs>
  <g>
    <path class="cls-1" d="M64.57,53.93c-.65,0-1.2-.15-1.64-.44-.44-.29-.76-.69-.94-1.19l1.11-.65c.26.67.76,1,1.51,1,.36,0,.63-.07.8-.2.17-.13.25-.3.25-.5,0-.23-.1-.41-.31-.54-.21-.13-.58-.27-1.11-.42-.29-.09-.54-.18-.75-.26s-.41-.21-.61-.35c-.2-.15-.36-.33-.46-.56-.11-.23-.16-.49-.16-.79,0-.59.21-1.07.63-1.42.42-.35.93-.53,1.53-.53.53,0,1,.13,1.4.39.4.26.72.62.94,1.08l-1.09.63c-.26-.56-.68-.85-1.26-.85-.27,0-.48.06-.63.18s-.23.28-.23.47c0,.21.09.37.26.5s.5.27.99.42c.2.06.35.11.46.15.1.03.24.09.42.16.18.07.32.14.41.2.1.06.21.15.33.25.13.11.22.22.29.33.07.11.12.25.17.41.05.16.07.33.07.52,0,.61-.22,1.09-.66,1.45-.44.36-1.02.54-1.72.54Z"/>
    <path class="cls-1" d="M70.84,53.93c-.99,0-1.81-.33-2.45-.99s-.97-1.47-.97-2.43.32-1.78.97-2.44c.64-.65,1.46-.98,2.45-.98.59,0,1.14.14,1.65.42.5.28.9.66,1.18,1.13l-1.12.65c-.16-.29-.39-.52-.69-.69-.3-.17-.64-.25-1.01-.25-.64,0-1.15.2-1.54.6-.39.4-.59.92-.59,1.56s.2,1.15.59,1.55c.39.4.91.6,1.54.6.38,0,.72-.08,1.02-.25.3-.17.53-.39.69-.68l1.12.65c-.28.48-.67.85-1.17,1.13s-1.05.42-1.65.42Z"/>
    <path class="cls-1" d="M74.48,47.23h1.3v6.57h-1.3v-6.57Z"/>
    <path class="cls-1" d="M82.56,52.94c-.66.66-1.47.99-2.42.99s-1.76-.33-2.42-.99c-.66-.66-.99-1.47-.99-2.43s.33-1.77.99-2.43c.66-.66,1.47-.99,2.42-.99s1.76.33,2.42.99c.66.66,1,1.47,1,2.43s-.33,1.77-1,2.43ZM78.62,52.06c.41.4.91.61,1.51.61s1.11-.2,1.51-.61c.41-.4.61-.92.61-1.54s-.2-1.14-.61-1.55c-.41-.41-.91-.61-1.51-.61s-1.11.2-1.51.61-.61.92-.61,1.55.2,1.14.61,1.54Z"/>
    <path class="cls-1" d="M88.26,47.23h1.3v6.57h-.99l-2.82-4.02v4.02h-1.3v-6.57h.98l2.82,4v-4Z"/>
    <path class="cls-1" d="M99.58,50.27v.51c0,.94-.3,1.7-.9,2.28-.6.58-1.38.87-2.33.87-1.01,0-1.85-.33-2.52-.99-.67-.66-1-1.47-1-2.42s.33-1.77.99-2.43c.66-.66,1.48-1,2.46-1,.61,0,1.17.14,1.68.42.51.28.9.65,1.18,1.11l-1.11.64c-.16-.27-.39-.49-.71-.66-.32-.17-.67-.25-1.06-.25-.63,0-1.14.21-1.55.62-.4.41-.61.93-.61,1.55s.2,1.13.62,1.54c.41.4.95.61,1.63.61.5,0,.92-.11,1.24-.33.33-.22.55-.53.67-.92h-1.99v-1.15h3.3Z"/>
    <path class="cls-1" d="M104.1,53.8l-1.33-2.28h-.98v2.28h-1.3v-6.57h2.63c.61,0,1.12.21,1.55.64.43.43.64.94.64,1.54,0,.41-.12.78-.35,1.13s-.54.61-.92.78l1.46,2.48h-1.4ZM101.79,48.44v1.94h1.33c.24,0,.45-.1.63-.29s.26-.42.26-.69-.09-.5-.26-.69c-.18-.19-.39-.28-.63-.28h-1.33Z"/>
    <path class="cls-1" d="M111.7,52.94c-.66.66-1.47.99-2.42.99s-1.76-.33-2.42-.99c-.66-.66-.99-1.47-.99-2.43s.33-1.77.99-2.43c.66-.66,1.47-.99,2.42-.99s1.76.33,2.42.99c.66.66,1,1.47,1,2.43s-.33,1.77-1,2.43ZM107.77,52.06c.41.4.91.61,1.51.61s1.11-.2,1.51-.61c.41-.4.61-.92.61-1.54s-.2-1.14-.61-1.55c-.41-.41-.91-.61-1.51-.61s-1.11.2-1.51.61-.61.92-.61,1.55.2,1.14.61,1.54Z"/>
    <path class="cls-1" d="M116.07,53.93c-.73,0-1.33-.21-1.8-.62-.47-.41-.7-.97-.7-1.66v-4.42h1.29v4.32c0,.34.1.62.3.82.2.2.51.3.93.3s.73-.1.93-.3c.2-.2.3-.47.3-.82v-4.32h1.3v4.42c0,.69-.23,1.25-.7,1.66-.47.41-1.07.62-1.81.62Z"/>
    <path class="cls-1" d="M122.27,47.23c.63,0,1.16.21,1.6.64.43.43.65.95.65,1.57s-.22,1.14-.65,1.57c-.43.43-.96.64-1.6.64h-1.16v2.16h-1.3v-6.57h2.45ZM122.27,50.43c.28,0,.5-.1.69-.29s.27-.43.27-.71-.09-.53-.27-.71c-.18-.19-.41-.28-.69-.28h-1.16v1.99h1.16Z"/>
  </g>
  <g>
    <path class="cls-1" d="M15.84,1.85c-.37-.33-.87-.48-1.37-.42-.42.05-.8.26-1.07.57-.63.71-.57,1.81.15,2.44.37.33.87.48,1.37.42.42-.05.8-.26,1.07-.57.63-.72.57-1.81-.15-2.44Z"/>
    <circle class="cls-1" cx="17.96" cy="8.75" r="1.64"/>
    <circle class="cls-1" cx="11.85" cy="7.89" r="2.39"/>
    <circle class="cls-1" cx="13.99" cy="14.25" r="2.93"/>
    <circle class="cls-1" cx="27.09" cy="9.53" r="4.07"/>
    <circle class="cls-1" cx="32" cy="3.22" r="2.49"/>
    <circle class="cls-1" cx="37.51" cy="2.14" r="1.64"/>
    <g>
      <path class="cls-1" d="M28.25,16.65c-.12.12-.12.32,0,.43l.14.14c1.65,1.65,4.15,1.98,6.1.92.56-.31,1.05-.78,1.23-1.41s.05-1.42-.26-2.01c-.16-.31-.38-.59-.65-.82-1.15-1.01-2.9-.9-3.98.18,0,0-2.58,2.58-2.58,2.58Z"/>
      <path class="cls-1" d="M32.13,20.9l.26-.26c.2-.2.05-.54-.23-.53-1.73.09-3.49-.53-4.81-1.85l-1.31-1.31s-.09-.08-.14-.12l-2.82-2.82c-1.12-1.12-2.94-1.12-4.07,0-1.12,1.12-1.12,2.94,0,4.07l2.82,2.82c1.42,1.42,3.28,2.13,5.15,2.13s3.73-.71,5.15-2.13Z"/>
    </g>
    <g>
      <path class="cls-1" d="M52.29,15.84c.33-.37.48-.87.42-1.37-.05-.42-.26-.8-.57-1.07-.71-.63-1.81-.57-2.44.15-.33.37-.48.87-.42,1.37.05.42.26.8.57,1.07.72.63,1.81.57,2.44-.15Z"/>
      <circle class="cls-1" cx="45.39" cy="17.96" r="1.64"/>
      <circle class="cls-1" cx="46.25" cy="11.85" r="2.39"/>
      <circle class="cls-1" cx="39.89" cy="13.99" r="2.93"/>
      <circle class="cls-1" cx="44.6" cy="27.09" r="4.07"/>
      <circle class="cls-1" cx="50.91" cy="32" r="2.49"/>
      <circle class="cls-1" cx="51.99" cy="37.51" r="1.64"/>
      <g>
        <path class="cls-1" d="M37.49,28.25c-.12-.12-.32-.12-.43,0l-.14.14c-1.65,1.65-1.98,4.15-.92,6.1.31.56.78,1.05,1.41,1.23s1.42.05,2.01-.26c.31-.16.59-.38.82-.65,1.01-1.15.9-2.9-.18-3.98,0,0-2.58-2.58-2.58-2.58Z"/>
        <path class="cls-1" d="M33.24,32.13l.26.26c.2.2.54.05.53-.23-.09-1.73.53-3.49,1.85-4.81l1.31-1.31s.08-.09.12-.14l2.82-2.82c1.12-1.12,1.12-2.94,0-4.07-1.12-1.12-2.94-1.12-4.07,0l-2.82,2.82c-1.42,1.42-2.13,3.28-2.13,5.15s.71,3.73,2.13,5.15Z"/>
      </g>
    </g>
    <path class="cls-1" d="M38.3,52.29c.37.33.87.48,1.37.42.42-.05.8-.26,1.07-.57.63-.71.57-1.81-.15-2.44-.37-.33-.87-.48-1.37-.42-.42.05-.8.26-1.07.57-.63.72-.57,1.81.15,2.44Z"/>
    <circle class="cls-1" cx="36.18" cy="45.39" r="1.64"/>
    <circle class="cls-1" cx="42.29" cy="46.25" r="2.39"/>
    <circle class="cls-1" cx="40.14" cy="39.89" r="2.93"/>
    <circle class="cls-1" cx="27.05" cy="44.6" r="4.07"/>
    <circle class="cls-1" cx="22.14" cy="50.91" r="2.49"/>
    <circle class="cls-1" cx="16.63" cy="51.99" r="1.64"/>
    <g>
      <path class="cls-1" d="M25.89,37.49c.12-.12.12-.32,0-.43l-.14-.14c-1.65-1.65-4.15-1.98-6.1-.92-.56.31-1.05.78-1.23,1.41s-.05,1.42.26,2.01c.16.31.38.59.65.82,1.15,1.01,2.9.9,3.98-.18,0,0,2.58-2.58,2.58-2.58Z"/>
      <path class="cls-1" d="M22.01,33.24l-.26.26c-.2.2-.05.54.23.53,1.73-.09,3.49.53,4.81,1.85l1.31,1.31s.09.08.14.12l2.82,2.82c1.12,1.12,2.94,1.12,4.07,0,1.12-1.12,1.12-2.94,0-4.07l-2.82-2.82c-1.42-1.42-3.28-2.13-5.15-2.13s-3.73.71-5.15,2.13Z"/>
    </g>
    <g>
      <path class="cls-1" d="M1.85,38.3c-.33.37-.48.87-.42,1.37.05.42.26.8.57,1.07.71.63,1.81.57,2.44-.15.33-.37.48-.87.42-1.37-.05-.42-.26-.8-.57-1.07-.72-.63-1.81-.57-2.44.15Z"/>
      <circle class="cls-1" cx="8.75" cy="36.18" r="1.64"/>
      <circle class="cls-1" cx="7.89" cy="42.29" r="2.39"/>
      <circle class="cls-1" cx="14.25" cy="40.14" r="2.93"/>
      <circle class="cls-1" cx="9.53" cy="27.05" r="4.07"/>
      <circle class="cls-1" cx="3.22" cy="22.14" r="2.49"/>
      <circle class="cls-1" cx="2.14" cy="16.63" r="1.64"/>
      <g>
        <path class="cls-1" d="M16.65,25.89c.12.12.32.12.43,0l.14-.14c1.65-1.65,1.98-4.15.92-6.1-.31-.56-.78-1.05-1.41-1.23s-1.42-.05-2.01.26c-.31.16-.59.38-.82.65-1.01,1.15-.9,2.9.18,3.98,0,0,2.58,2.58,2.58,2.58Z"/>
        <path class="cls-1" d="M20.9,22.01l-.26-.26c-.2-.2-.54-.05-.53.23.09,1.73-.53,3.49-1.85,4.81l-1.31,1.31s-.08.09-.12.14l-2.82,2.82c-1.12,1.12-1.12,2.94,0,4.07,1.12,1.12,2.94,1.12,4.07,0l2.82-2.82c1.42-1.42,2.13-3.28,2.13-5.15s-.71-3.73-2.13-5.15Z"/>
      </g>
    </g>
  </g>
  <path class="cls-1" d="M71.77,17.26c0,2.33-1.9,3.86-4.25,3.86h-5.53V7.94h5.16c2.3,0,4.16,1.49,4.16,3.76,0,1.09-.43,1.96-1.15,2.58.98.62,1.62,1.64,1.62,2.97ZM64.99,10.77v2.33h2.14c.68,0,1.15-.49,1.15-1.17s-.45-1.17-1.15-1.17h-2.14ZM68.76,17.03c0-.73-.49-1.26-1.24-1.26h-2.52v2.52h2.52c.75,0,1.24-.53,1.24-1.26Z"/>
  <path class="cls-1" d="M72.5,9.18c0-.92.77-1.69,1.69-1.69s1.69.77,1.69,1.69-.77,1.69-1.69,1.69-1.69-.77-1.69-1.69ZM72.78,11.71h2.82v9.41h-2.82v-9.41Z"/>
  <path class="cls-1" d="M76.57,16.41c0-2.8,2.22-4.97,4.99-4.97s4.99,2.16,4.99,4.97-2.22,4.97-4.99,4.97-4.99-2.16-4.99-4.97ZM83.72,16.41c0-1.34-.94-2.22-2.16-2.22s-2.16.88-2.16,2.22.94,2.22,2.16,2.22,2.16-.88,2.16-2.22Z"/>
  <path class="cls-1" d="M92.5,18.86c.77,0,1.43-.3,1.81-.71l2.26,1.3c-.92,1.28-2.31,1.94-4.1,1.94-3.22,0-5.21-2.16-5.21-4.97s2.03-4.97,5.01-4.97c2.75,0,4.78,2.13,4.78,4.97,0,.4-.04.77-.11,1.13h-6.68c.36.98,1.22,1.32,2.26,1.32ZM94.23,15.43c-.3-1.09-1.15-1.49-1.99-1.49-1.07,0-1.79.53-2.05,1.49h4.05Z"/>
  <path class="cls-1" d="M97.75,16.41c0-2.8,2.13-4.97,4.99-4.97,1.83,0,3.44.96,4.25,2.41l-2.46,1.43c-.32-.66-1-1.05-1.83-1.05-1.22,0-2.13.88-2.13,2.18s.9,2.18,2.13,2.18c.83,0,1.52-.4,1.83-1.05l2.46,1.41c-.81,1.47-2.41,2.43-4.25,2.43-2.86,0-4.99-2.16-4.99-4.97Z"/>
  <path class="cls-1" d="M107.26,16.41c0-2.8,2.22-4.97,4.99-4.97s4.99,2.16,4.99,4.97-2.22,4.97-4.99,4.97-4.99-2.16-4.99-4.97ZM114.41,16.41c0-1.34-.94-2.22-2.16-2.22s-2.16.88-2.16,2.22.94,2.22,2.16,2.22,2.16-.88,2.16-2.22Z"/>
  <path class="cls-1" d="M127.24,15.34v5.78h-2.82v-5.36c0-1.17-.73-1.71-1.64-1.71-1.03,0-1.75.6-1.75,1.94v5.14h-2.82v-9.41h2.82v.88c.51-.7,1.45-1.15,2.69-1.15,1.9,0,3.52,1.35,3.52,3.89Z"/>
  <path class="cls-1" d="M128.18,16.41c0-2.8,2.22-4.97,4.99-4.97s4.99,2.16,4.99,4.97-2.22,4.97-4.99,4.97-4.99-2.16-4.99-4.97ZM135.33,16.41c0-1.34-.94-2.22-2.16-2.22s-2.16.88-2.16,2.22.94,2.22,2.16,2.22,2.16-.88,2.16-2.22Z"/>
  <path class="cls-1" d="M153.19,15.34v5.78h-2.82v-5.53c0-.94-.45-1.54-1.35-1.54s-1.47.66-1.47,1.77v5.31h-2.82v-5.53c0-.94-.45-1.54-1.35-1.54s-1.47.66-1.47,1.77v5.31h-2.82v-9.41h2.82v.87c.43-.64,1.26-1.13,2.52-1.13,1.11,0,1.94.45,2.46,1.24.53-.75,1.39-1.24,2.73-1.24,2.16,0,3.58,1.54,3.58,3.89Z"/>
  <path class="cls-1" d="M162.86,11.71l-3.22,9.13c-1.05,2.99-2.73,4.18-5.36,4.05v-2.63c1.32,0,1.94-.41,2.35-1.56l-3.74-8.98h3.1l2.09,5.76,1.77-5.76h3.01Z"/>
  <path class="cls-1" d="M61.32,35.52l2.6-1.51c.47,1.09,1.28,1.83,2.77,1.83s1.79-.56,1.79-1.07c0-.81-.75-1.13-2.73-1.67-1.96-.55-3.88-1.49-3.88-4.01s2.14-4.01,4.42-4.01,3.86,1.03,4.82,2.97l-2.54,1.49c-.45-.94-1.07-1.52-2.28-1.52-.94,0-1.41.47-1.41,1,0,.6.32,1.02,2.37,1.64,1.99.6,4.23,1.3,4.23,4.08,0,2.54-2.03,4.05-4.89,4.05s-4.53-1.32-5.27-3.26Z"/>
  <path class="cls-1" d="M72.14,33.81c0-2.8,2.13-4.97,4.99-4.97,1.83,0,3.44.96,4.25,2.41l-2.46,1.43c-.32-.66-1-1.05-1.83-1.05-1.22,0-2.13.88-2.13,2.18s.9,2.18,2.13,2.18c.83,0,1.52-.4,1.83-1.05l2.46,1.41c-.81,1.47-2.41,2.43-4.25,2.43-2.86,0-4.99-2.16-4.99-4.97Z"/>
  <path class="cls-1" d="M81.96,26.58c0-.92.77-1.69,1.69-1.69s1.69.77,1.69,1.69-.77,1.69-1.69,1.69-1.69-.77-1.69-1.69ZM82.24,29.1h2.82v9.41h-2.82v-9.41Z"/>
  <path class="cls-1" d="M91.23,36.25c.77,0,1.43-.3,1.81-.71l2.26,1.3c-.92,1.28-2.31,1.94-4.1,1.94-3.22,0-5.21-2.16-5.21-4.97s2.03-4.97,5-4.97c2.75,0,4.78,2.13,4.78,4.97,0,.4-.04.77-.11,1.13h-6.68c.36.98,1.22,1.32,2.26,1.32ZM92.96,32.83c-.3-1.09-1.15-1.49-1.99-1.49-1.07,0-1.79.53-2.05,1.49h4.05Z"/>
  <path class="cls-1" d="M105.81,32.73v5.78h-2.82v-5.36c0-1.17-.73-1.71-1.64-1.71-1.03,0-1.75.6-1.75,1.94v5.14h-2.82v-9.41h2.82v.88c.51-.7,1.45-1.15,2.69-1.15,1.9,0,3.52,1.35,3.52,3.89Z"/>
  <path class="cls-1" d="M106.79,33.81c0-2.8,2.13-4.97,4.99-4.97,1.83,0,3.44.96,4.25,2.41l-2.46,1.43c-.32-.66-1-1.05-1.83-1.05-1.22,0-2.13.88-2.13,2.18s.9,2.18,2.13,2.18c.83,0,1.52-.4,1.83-1.05l2.46,1.41c-.81,1.47-2.41,2.43-4.25,2.43-2.86,0-4.99-2.16-4.99-4.97Z"/>
  <path class="cls-1" d="M121.56,36.25c.77,0,1.43-.3,1.81-.71l2.26,1.3c-.92,1.28-2.31,1.94-4.1,1.94-3.22,0-5.21-2.16-5.21-4.97s2.03-4.97,5.01-4.97c2.75,0,4.78,2.13,4.78,4.97,0,.4-.04.77-.11,1.13h-6.68c.36.98,1.22,1.32,2.26,1.32ZM123.29,32.83c-.3-1.09-1.15-1.49-1.99-1.49-1.07,0-1.79.53-2.05,1.49h4.05Z"/>
  <path class="cls-1" d="M134.12,25.34v13.17h-3.01v-13.17h3.01Z"/>
  <path class="cls-1" d="M144.21,32.73v5.78h-2.82v-5.36c0-1.17-.73-1.71-1.64-1.71-1.03,0-1.75.6-1.75,1.94v5.14h-2.82v-9.41h2.82v.88c.51-.7,1.45-1.15,2.69-1.15,1.9,0,3.52,1.36,3.52,3.89Z"/>
  <path class="cls-1" d="M152.76,35.69c0,2.16-1.88,3.09-3.91,3.09-1.88,0-3.31-.71-4.05-2.24l2.45-1.39c.24.72.77,1.11,1.6,1.11.68,0,1.02-.21,1.02-.58,0-1.03-4.63-.49-4.63-3.74,0-2.05,1.73-3.09,3.69-3.09,1.52,0,2.88.68,3.67,2.01l-2.41,1.3c-.26-.49-.64-.83-1.26-.83-.49,0-.79.19-.79.53,0,1.07,4.63.36,4.63,3.84Z"/>
  <path class="cls-1" d="M156.59,31.68v3.14c0,1.38,1.23,1.21,2.47,1.13v2.56c-3.69.38-5.3-.73-5.3-3.37v-3.33h0v-2.71h0v-2.63h2.82v2.11c0,.29.23.52.52.52h2.07l.02,2.57h-2.61Z"/>
  <path class="cls-1" d="M166.89,31.68v3.14c0,1.38,1.23,1.21,2.47,1.13v2.56c-3.69.38-5.3-.73-5.3-3.37v-3.33h0v-2.71h0v-2.63h2.82v2.11c0,.29.23.52.52.52h2.07l.02,2.57h-2.61Z"/>
  <path class="cls-1" d="M183.62,31.68v3.14c0,1.38,1.23,1.21,2.47,1.13v2.56c-3.69.38-5.3-.73-5.3-3.37v-3.33h0v-2.71h0v-2.63h2.82v2.11c0,.29.23.52.52.52h2.07l.02,2.57h-2.61Z"/>
  <path class="cls-1" d="M159.89,26.58c0-.92.77-1.69,1.69-1.69s1.69.77,1.69,1.69-.77,1.69-1.69,1.69-1.69-.77-1.69-1.69ZM160.17,29.1h2.82v9.41h-2.82v-9.41Z"/>
  <path class="cls-1" d="M179.65,29.1v9.41h-2.82v-.88c-.51.7-1.45,1.15-2.69,1.15-1.9,0-3.52-1.35-3.52-3.89v-5.78h2.82v5.36c0,1.17.73,1.71,1.64,1.71,1.03,0,1.75-.6,1.75-1.94v-5.14h2.82Z"/>
  <path class="cls-1" d="M191.75,36.25c.77,0,1.43-.3,1.81-.71l2.26,1.3c-.92,1.28-2.31,1.94-4.1,1.94-3.22,0-5.21-2.16-5.21-4.97s2.03-4.97,5.01-4.97c2.75,0,4.78,2.13,4.78,4.97,0,.39-.04.77-.11,1.13h-6.68c.36.98,1.22,1.32,2.26,1.32ZM193.48,32.83c-.3-1.09-1.15-1.49-1.99-1.49-1.07,0-1.79.53-2.05,1.49h4.05Z"/>
  <path class="cls-1" d="M196.8,27.24v.44h-.51v1.37h-.48v-1.37h-.52v-.44h1.5ZM198.46,27.24h.47v1.81h-.47v-1.05l-.47.72h-.05l-.47-.71v1.04h-.47v-1.81h.47l.49.76.5-.76Z"/>
</svg>